<?xml version="1.0" encoding="utf-8"?>
<!-- Generator: Adobe Illustrator 28.3.0, SVG Export Plug-In . SVG Version: 6.00 Build 0)  -->
<svg version="1.1" id="Layer_1" xmlns="http://www.w3.org/2000/svg" xmlns:xlink="http://www.w3.org/1999/xlink" x="0px" y="0px"
	 viewBox="0 0 64 64" style="enable-background:new 0 0 64 64;" xml:space="preserve">
<style type="text/css">
	.st0{fill:#009D9D;}
	.st1{fill:#004F4D;}
	.st2{fill:#DCDFE2;}
</style>
<path class="st0" d="M51.7,8H12.3C9.9,8,8,9.9,8,12.3v39.3c0,2.4,1.9,4.3,4.3,4.3h39.3c2.4,0,4.3-1.9,4.3-4.3V12.3
	C56,9.9,54.1,8,51.7,8z"/>
<path class="st1" d="M50.5,29.8l-2.2-2.2l-6.9-2.3H29.9l-8.1-8.1L15,21.6v9.4l0.6,19.5l0,0C19.1,54,23.8,56,28.8,56h22.9
	c2.4,0,4.3-1.9,4.3-4.3V43C56,38.1,54.1,33.3,50.5,29.8z"/>
<path class="st2" d="M16.2,25.6h5.4c0.7,0,1.3,0.6,1.3,1.3v22.6c0,0.7-0.6,1.3-1.3,1.3h-5.4c-0.7,0-1.3-0.6-1.3-1.3V26.9
	C14.9,26.2,15.5,25.6,16.2,25.6z"/>
<path class="st2" d="M18.9,23.5c-2.8,0-5.1-2.3-5.1-5.1s2.3-5.1,5.1-5.1s5.1,2.3,5.1,5.1c0,0,0,0,0,0C24,21.2,21.7,23.5,18.9,23.5
	L18.9,23.5z"/>
<path class="st2" d="M51,49.5c0,0.6-0.5,1.2-1.2,1.2H44c-0.6,0-1.2-0.5-1.2-1.2V39c0-1.6,0.5-6.9-4.1-6.9c-3.5,0-4.3,3.7-4.4,5.3
	v12.2c0,0.6-0.5,1.2-1.2,1.2h-5.6c-0.6,0-1.2-0.5-1.2-1.1c0,0,0,0,0,0V26.8c0-0.6,0.5-1.2,1.2-1.2c0,0,0,0,0,0h5.6
	c0.6,0,1.2,0.5,1.2,1.2v0.4c0,0.3,0.2,0.5,0.5,0.5c0.2,0,0.3-0.1,0.4-0.2c1.3-1.4,3.2-2.3,6.5-2.3c9.2,0,9.2,8.6,9.2,13.4V49.5z"/>
</svg>
