<?xml version="1.0" encoding="utf-8"?>
<!-- Generator: Adobe Illustrator 28.3.0, SVG Export Plug-In . SVG Version: 6.00 Build 0)  -->
<svg version="1.1" id="Layer_1" xmlns="http://www.w3.org/2000/svg" xmlns:xlink="http://www.w3.org/1999/xlink" x="0px" y="0px"
	 viewBox="0 0 64 64" style="enable-background:new 0 0 64 64;" xml:space="preserve">
<style type="text/css">
	.st0{fill:#DCDFE2;}
	.st1{fill:#CAD0D8;}
	.st2{fill:#004F4D;}
	.st3{fill:#009D9D;}
</style>
<path class="st0" d="M11.2,14.6h41.7c1.7,0,3.1,1.4,3.1,3.1v28.5c0,1.7-1.4,3.1-3.1,3.1H11.2C9.4,49.4,8,48,8,46.2V17.8
	C8,16,9.4,14.6,11.2,14.6z"/>
<polygon class="st1" points="32,37 10.7,21.4 10.5,21.3 8,19.5 8,21.3 9.8,22.6 9.9,22.7 31.2,38.2 "/>
<path class="st1" d="M56,18.7L38.4,31.5l-6.9,5l0,0L14,49.4h1.6l13.7-10c1.8-1.3,4.1-1.3,5.9,0l10.7,7.8c2,1.5,4.4,2.2,6.9,2.2
	c1.7,0,3.1-1.4,3.1-3.1c0,0,0,0,0-0.1V19.9l0,0V18.7z"/>
<path class="st2" d="M56,17.8v28.5c0,0.3,0,0.6-0.1,0.9c-0.4,1.3-1.6,2.3-3,2.3l0,0c-1.3,0-2.3-1-2.3-2.3V16.2l0.2-0.1l2-1.5h0.1
	C54.6,14.6,56,16,56,17.8C56,17.7,56,17.7,56,17.8z"/>
<path class="st3" d="M52.8,14.6L52.8,14.6c-0.1,0-0.2,0-0.3,0.1l-1.9,1.4l-0.2,0.1l-18,13.1c-0.2,0.2-0.6,0.2-0.8,0L13.5,16
	l-1.7-1.3c-0.1-0.1-0.2-0.1-0.3-0.1h-0.3C9.4,14.6,8,16,8,17.8v28.5c0,0.3,0,0.6,0.1,0.9c0.4,1.3,1.6,2.3,3,2.3l0,0
	c1.3,0,2.3-1,2.3-2.3V23.4L27,33.3l4.5,3.2c0.5,0.4,1.2,0.4,1.7,0l4.3-3.1l13.1-9.5l0.2-0.1l5.4-3.9v-2.2C56,16,54.6,14.6,52.8,14.6
	C52.8,14.6,52.8,14.6,52.8,14.6z"/>
<polygon class="st2" points="13.5,23.5 10.7,21.4 10.5,21.3 8,19.5 8,21.3 9.8,22.6 9.9,22.7 13.5,25.3 "/>
</svg>
