<?xml version="1.0" encoding="UTF-8"?>
<svg id="Layer_1" data-name="Layer 1" xmlns="http://www.w3.org/2000/svg" viewBox="0 0 64 64">
  <defs>
    <style>
      .cls-1 {
        fill: #009d9d;
      }

      .cls-1, .cls-2, .cls-3 {
        stroke-width: 0px;
      }

      .cls-2 {
        fill: #004f4d;
      }

      .cls-3 {
        fill: #dcdfe2;
      }
    </style>
  </defs>
  <path class="cls-1" d="M14.97,44.26c.14-.34.2-.65.38-.87,1-1.25,2.02-2.48,3.05-3.7.38-.45.54-.93.54-1.53-.02-4.71-.02-9.43,0-14.14,0-.62-.17-1.11-.58-1.58-.9-1.03-1.77-2.09-2.63-3.16-.16-.2-.23-.49-.38-.82.31-.02.5-.04.68-.04,2.78,0,5.57.01,8.35-.01.46,0,.64.17.82.56,2.22,4.89,4.45,9.77,6.68,14.66.1.22.21.44.37.8.13-.31.21-.5.29-.7,1.97-4.91,3.95-9.81,5.9-14.72.17-.43.37-.59.84-.59,2.78.03,5.56.01,8.53.01,0,0,4.6,2.52,8.09,7.62v-13.73c.1-2.4-1.8-4.3-4.2-4.3H12.3c-2.4,0-4.3,1.9-4.3,4.3v39.3c0,2.4,1.9,4.3,4.3,4.3h18.2c-4.75-2.37-11.62-6.43-15.54-11.64Z"/>
  <path class="cls-2" d="M55.9,51.6v-25.57c-3.49-5.1-8.09-7.62-8.09-7.62-.16.34-.22.64-.39.82-.7.71-1.46,1.36-2.14,2.09-.24.26-.44.67-.44,1.02-.03,6.02-.03,12.04,0,18.07,0,.35.19.76.43,1.02.65.72,1.39,1.37,2.07,2.07.18.18.26.46.44.8h-13.06c.18-.33.27-.62.45-.82.71-.73,1.47-1.41,2.17-2.15.2-.2.37-.53.38-.8.02-4.82.01-9.64.01-14.45,0-.03-.02-.07-.07-.18-.23.57-.44,1.07-.64,1.59-2.13,5.4-4.25,10.8-6.38,16.2-.12.3-.17.61-.64.62-.49.01-.68-.2-.86-.6-2.61-5.72-5.23-11.43-7.85-17.14-.09-.19-.18-.37-.34-.72-.03.33-.05.5-.05.66,0,3.92-.02,7.85.01,11.77,0,.44.21.94.49,1.29.99,1.28,2.05,2.5,3.07,3.76.19.23.27.54.45.91h-9.94c3.91,5.21,10.78,9.27,15.54,11.64h21.1c2.4,0,4.3-1.9,4.3-4.3Z"/>
  <path class="cls-3" d="M45.27,41.42c-.24-.26-.43-.68-.43-1.02-.03-6.02-.03-12.04,0-18.07,0-.34.2-.76.44-1.02.68-.73,1.44-1.38,2.14-2.09.18-.18.24-.48.39-.82-2.97,0-5.75.01-8.53-.01-.48,0-.67.15-.84.59-1.95,4.91-3.93,9.82-5.9,14.72-.08.2-.17.4-.29.7-.17-.35-.27-.57-.37-.8-2.23-4.89-4.46-9.77-6.68-14.66-.17-.39-.36-.56-.82-.56-2.78.03-5.57.01-8.35.01-.18,0-.36.02-.68.04.15.33.21.61.38.82.86,1.07,1.73,2.13,2.63,3.16.41.47.58.96.58,1.58-.02,4.71-.02,9.43,0,14.14,0,.6-.16,1.08-.54,1.53-1.03,1.22-2.05,2.46-3.05,3.7-.18.22-.23.53-.38.87h9.94c-.18-.37-.26-.68-.45-.91-1.01-1.26-2.08-2.48-3.07-3.76-.27-.35-.48-.85-.49-1.29-.03-3.92-.02-7.85-.01-11.77,0-.17.03-.33.05-.66.16.35.25.53.34.72,2.62,5.71,5.24,11.42,7.85,17.14.18.4.38.61.86.6.47-.01.52-.32.64-.62,2.13-5.4,4.25-10.8,6.38-16.2.2-.51.41-1.02.64-1.59.04.11.07.15.07.18,0,4.82,0,9.64-.01,14.45,0,.27-.18.59-.38.8-.7.73-1.46,1.42-2.17,2.15-.19.19-.28.49-.45.82h13.06c-.18-.34-.26-.62-.44-.8-.68-.7-1.41-1.35-2.07-2.07Z"/>
</svg>